<?xml version="1.0" standalone="no"?>
<!DOCTYPE svg PUBLIC "-//W3C//DTD SVG 20010904//EN"
 "http://www.w3.org/TR/2001/REC-SVG-20010904/DTD/svg10.dtd">
<svg version="1.0" xmlns="http://www.w3.org/2000/svg"
 width="1600.000000pt" height="1600.000000pt" viewBox="0 0 1600.000000 1600.000000"
 preserveAspectRatio="xMidYMid meet">

<g transform="translate(0.000000,1600.000000) scale(0.100000,-0.100000)"
fill="#000000" stroke="none">
<path d="M3775 14644 c-548 -98 -965 -508 -1082 -1064 -17 -81 -18 -335 -18
-5580 0 -5245 1 -5499 18 -5580 118 -559 537 -969 1091 -1065 79 -13 544 -15
4216 -15 3753 0 4135 1 4221 16 583 100 1032 576 1099 1164 8 67 10 1687 8
5545 -3 5206 -4 5453 -21 5525 -44 182 -113 346 -202 480 -168 252 -429 447
-716 534 -176 53 -216 56 -825 56 l-564 0 0 -495 0 -494 548 -3 547 -3 55 -26
c101 -48 162 -131 180 -245 13 -80 13 -10708 0 -10788 -18 -114 -79 -197 -180
-245 l-55 -26 -4095 0 -4095 0 -55 26 c-98 47 -159 128 -180 240 -7 36 -9
1859 -8 5434 l3 5380 22 55 c29 71 91 135 162 169 l56 26 548 3 547 3 0 494 0
495 -572 -1 c-451 -1 -590 -4 -653 -15z"/>
<path d="M7745 10320 c-634 -70 -1182 -330 -1623 -770 -401 -399 -656 -894
-753 -1461 -27 -157 -37 -523 -20 -691 128 -1238 1100 -2224 2346 -2379 129
-16 481 -16 610 0 584 73 1115 324 1531 724 464 445 747 1021 815 1654 17 167
7 534 -20 692 -97 567 -350 1057 -751 1459 -413 413 -926 670 -1512 758 -122
18 -507 27 -623 14z m1983 -2019 c-2 -4 -457 -451 -1013 -994 l-1010 -987
-637 638 -638 637 237 237 238 238 400 -400 c220 -220 403 -400 407 -400 4 0
355 340 780 755 l773 756 233 -237 c128 -130 232 -239 230 -243z"/>
</g>
</svg>
